<svg height="511pt" viewBox="-61 1 511 511.99858" width="511pt" xmlns="http://www.w3.org/2000/svg"><path d="m384.621094 274.535156-70.4375-56.421875c-3.75-103.226562-58.730469-184.53125-111.230469-215.980469-4.75-2.847656-10.683594-2.84375-15.429687.015626-41.011719 24.679687-106.671876 99.5625-111.171876 215.53125l-70.285156 56.90625c-3.519531 2.851562-5.566406 7.144531-5.566406 11.679687v61.074219c0 8.292968 6.714844 15.015625 15 15.015625h82.589844c2.007812 6.320312 4.140625 12.671875 6.417968 19.0625 2.132813 5.980469 7.789063 9.972656 14.128907 9.972656h153.066406c6.335937 0 11.988281-3.988281 14.125-9.960937 2.285156-6.394532 4.425781-12.75 6.4375-19.074219h82.984375c8.285156 0 15-6.722657 15-15.019531v-61.074219c0-4.5625-2.070312-8.878907-5.628906-11.726563zm-189.355469-241.164062c11.074219 8.472656 32.148437 26.941406 50.925781 56.648437h-101.75c18.761719-29.691406 39.792969-48.171875 50.824219-56.648437zm-164.765625 298.945312v-38.886718l46.460938-37.613282c1.699218 24.671875 5.894531 50.222656 12.550781 76.5zm98.8125 29.035156c-30.90625-92.058593-31.21875-173.769531-.957031-241.292968h133.910156c34.195313 76.402344 25.375 162.277344-1.230469 241.292968zm230.9375-29.035156h-59.375c6.667969-26.207031 10.882812-51.683594 12.621094-76.289062l46.753906 37.453125zm0 0"/><path d="m195.25 196.152344c-24.8125 0-45 20.210937-45 45.054687s20.1875 45.054688 45 45.054688 45-20.210938 45-45.054688-20.183594-45.054687-45-45.054687zm0 60.074218c-8.269531 0-15-6.738281-15-15.019531s6.730469-15.019531 15-15.019531c8.273438 0 15 6.738281 15 15.019531s-6.726562 15.019531-15 15.019531zm0 0"/><path d="m241.429688 421.429688h-92.355469c-8.285157 0-15 6.722656-15 15.015624 0 23.066407 9.875 43.386719 28.5625 58.765626 13.300781 10.945312 26.402343 15.523437 27.855469 16.011718 3.023437 1.011719 6.371093 1.058594 9.539062-.007812 1.445312-.484375 14.503906-5.066406 27.777344-16.011719 18.632812-15.367187 28.53125-35.664063 28.621094-58.695313.035156-8.316406-6.695313-15.078124-15-15.078124zm-46.183594 59.277343c-7.699219-3.707031-22.605469-12.746093-28.59375-29.242187h57.148437c-6.019531 16.507812-20.851562 25.53125-28.554687 29.242187zm0 0"/></svg>